<svg width="18" height="20" viewBox="0 0 18 20" fill="none" xmlns="http://www.w3.org/2000/svg">
<path fill-rule="evenodd" clip-rule="evenodd" d="M6.81329 17.773C7.29516 18.3098 7.91376 18.6047 8.55562 18.6047H8.55655C9.2012 18.6047 9.8226 18.3098 10.3054 17.7721C10.564 17.4865 11.0049 17.4633 11.2905 17.7209C11.577 17.9786 11.6003 18.4205 11.3426 18.706C10.591 19.5405 9.60213 20 8.55655 20H8.55469C7.5119 19.9991 6.52492 19.5395 5.77609 18.7051C5.51841 18.4195 5.54167 17.9777 5.82818 17.7209C6.11469 17.4623 6.55562 17.4856 6.81329 17.773ZM8.60195 0C12.7368 0 15.5145 3.22047 15.5145 6.22791C15.5145 7.77488 15.908 8.4307 16.3257 9.12651C16.7387 9.81302 17.2066 10.5926 17.2066 12.066C16.8819 15.8307 12.9517 16.1377 8.60195 16.1377C4.25218 16.1377 0.321016 15.8307 7.3348e-05 12.1256C-0.00270493 10.5926 0.465202 9.81302 0.878225 9.12651L1.02403 8.88108C1.38304 8.26405 1.68939 7.59289 1.68939 6.22791C1.68939 3.22047 4.46706 0 8.60195 0ZM8.60195 1.39535C5.35078 1.39535 3.08474 3.94233 3.08474 6.22791C3.08474 8.16186 2.54799 9.05581 2.07357 9.84465C1.69311 10.4781 1.39264 10.9786 1.39264 12.066C1.54799 13.8205 2.70613 14.7423 8.60195 14.7423C14.4652 14.7423 15.6596 13.7795 15.814 12.0056C15.8112 10.9786 15.5108 10.4781 15.1303 9.84465C14.6559 9.05581 14.1192 8.16186 14.1192 6.22791C14.1192 3.94233 11.8531 1.39535 8.60195 1.39535Z" fill="#AECFFF"/>
</svg>
