<svg width="21" height="20" viewBox="0 0 21 20" fill="none" xmlns="http://www.w3.org/2000/svg">
<path fill-rule="evenodd" clip-rule="evenodd" d="M11.692 0C9.246 0 7.256 1.99 7.256 4.436V5.368C7.256 5.782 7.592 6.118 8.006 6.118C8.42 6.118 8.756 5.782 8.756 5.368V4.436C8.756 2.816 10.073 1.5 11.692 1.5H16.567C18.184 1.5 19.5 2.816 19.5 4.436V15.565C19.5 17.184 18.184 18.5 16.567 18.5H11.681C10.069 18.5 8.756 17.188 8.756 15.576V14.633C8.756 14.219 8.42 13.883 8.006 13.883C7.592 13.883 7.256 14.219 7.256 14.633V15.576C7.256 18.016 9.242 20 11.681 20H16.567C19.011 20 21 18.011 21 15.565V4.436C21 1.99 19.011 0 16.567 0H11.692ZM3.6119 6.554L0.683899 9.469C0.657778 9.49492 0.634388 9.52187 0.612982 9.55039L0.683899 9.469C0.64847 9.50393 0.616962 9.5421 0.589624 9.5828C0.577591 9.60125 0.565985 9.62032 0.555229 9.63992C0.546501 9.65523 0.538467 9.67122 0.531021 9.68746C0.524708 9.70182 0.518648 9.71618 0.513031 9.73077C0.505491 9.74977 0.49889 9.76931 0.493099 9.78911C0.488735 9.8047 0.484724 9.82026 0.481209 9.836C0.476742 9.8551 0.473225 9.87432 0.470457 9.89368C0.468891 9.90627 0.46736 9.91947 0.466177 9.93276C0.463888 9.95557 0.4629 9.97774 0.4629 10L0.467999 10.062L0.470051 10.1017C0.470282 10.1034 0.470516 10.1051 0.470758 10.1068L0.4629 10C0.4629 10.0555 0.469046 10.1105 0.480993 10.1639C0.484724 10.1797 0.488735 10.1953 0.493225 10.2107C0.49889 10.2307 0.505491 10.2502 0.512886 10.2695C0.518648 10.2838 0.52471 10.2982 0.531195 10.3123C0.538469 10.3288 0.546501 10.3448 0.555107 10.3605C0.565985 10.3797 0.577591 10.3988 0.589998 10.4172C0.597017 10.4282 0.604717 10.439 0.612717 10.4497C0.636526 10.481 0.662472 10.5104 0.690544 10.5377L3.6119 13.447C3.7579 13.593 3.9499 13.666 4.1409 13.666C4.3329 13.666 4.5259 13.593 4.6719 13.445C4.9639 13.151 4.9629 12.677 4.6699 12.385L3.03 10.75H13.2542C13.6682 10.75 14.0042 10.414 14.0042 10C14.0042 9.586 13.6682 9.25 13.2542 9.25H3.028L4.6699 7.616C4.9629 7.324 4.9649 6.85 4.6719 6.556C4.3799 6.262 3.9059 6.262 3.6119 6.554Z" fill="#C4C4C4"/>
</svg>
